<mxfile host="app.diagrams.net" modified="2021-10-24T13:52:44.631Z" agent="5.0 (Windows NT 10.0; Win64; x64) AppleWebKit/537.36 (KHTML, like Gecko) Chrome/95.0.4638.54 Safari/537.36" etag="bOZ5pLXCbsz2p8lZaDAG" version="15.5.5" type="github">
  <diagram id="CtClA4N6S6cBcb25WfkH" name="Page-1">
    <mxGraphModel dx="1209" dy="652" grid="1" gridSize="10" guides="1" tooltips="1" connect="1" arrows="1" fold="1" page="1" pageScale="1" pageWidth="827" pageHeight="1169" math="0" shadow="0">
      <root>
        <mxCell id="0" />
        <mxCell id="1" parent="0" />
        <mxCell id="jvSX4cMNycTlVdTh1WGL-20" value="Goroutine" style="rounded=1;whiteSpace=wrap;html=1;fontSize=14;verticalAlign=top;fillColor=#ffe6cc;strokeColor=#d79b00;fontStyle=1" vertex="1" parent="1">
          <mxGeometry x="55" y="170" width="290" height="240" as="geometry" />
        </mxCell>
        <mxCell id="jvSX4cMNycTlVdTh1WGL-15" value="&lt;span style=&quot;font-weight: 700&quot;&gt;Go HTTP client&lt;/span&gt;" style="rounded=1;whiteSpace=wrap;html=1;fontSize=14;verticalAlign=top;fillColor=#d5e8d4;strokeColor=#82b366;" vertex="1" parent="1">
          <mxGeometry x="100" y="230" width="200" height="100" as="geometry" />
        </mxCell>
        <mxCell id="jvSX4cMNycTlVdTh1WGL-16" value="TCP connections pool" style="rounded=1;whiteSpace=wrap;html=1;fontSize=14;fillColor=#b1ddf0;strokeColor=#10739e;" vertex="1" parent="1">
          <mxGeometry x="120" y="270" width="160" height="40" as="geometry" />
        </mxCell>
        <mxCell id="jvSX4cMNycTlVdTh1WGL-19" value="HTTP Host" style="rounded=1;whiteSpace=wrap;html=1;fontSize=14;verticalAlign=middle;fillColor=#dae8fc;strokeColor=#6c8ebf;fontStyle=1" vertex="1" parent="1">
          <mxGeometry x="440" y="230" width="150" height="90" as="geometry" />
        </mxCell>
      </root>
    </mxGraphModel>
  </diagram>
</mxfile>
